<svg xmlns="http://www.w3.org/2000/svg" xmlns:xlink="http://www.w3.org/1999/xlink" viewBox="0,0,256,256" width="50px" height="50px" fill-rule="nonzero"><g fill="#6c6c6c" fill-rule="nonzero" stroke="none" stroke-width="1" stroke-linecap="butt" stroke-linejoin="miter" stroke-miterlimit="10" stroke-dasharray="" stroke-dashoffset="0" font-family="none" font-weight="none" font-size="none" text-anchor="none" style="mix-blend-mode: normal"><g transform="scale(5.12,5.12)"><path d="M25,2c-12.682,0 -23,10.317 -23,23c0,12.683 10.318,23 23,23c12.682,0 23,-10.317 23,-23c0,-12.683 -10.318,-23 -23,-23zM27.542,32.719c-3.297,0 -4.516,-2.138 -4.516,-2.138c0,0 -0.588,2.309 -1.021,3.95c-0.433,1.641 -0.507,1.665 -0.927,2.591c-0.471,1.039 -1.626,2.674 -1.966,3.177c-0.271,0.401 -0.607,0.735 -0.804,0.696c-0.197,-0.038 -0.197,-0.245 -0.245,-0.678c-0.066,-0.595 -0.258,-2.594 -0.166,-3.946c0.06,-0.88 0.367,-2.371 0.367,-2.371l2.225,-9.108c-1.368,-2.807 -0.246,-7.192 2.871,-7.192c2.211,0 2.79,2.001 2.113,4.406c-0.301,1.073 -1.246,4.082 -1.275,4.224c-0.029,0.142 -0.099,0.442 -0.083,0.738c0,0.878 0.671,2.672 2.995,2.672c3.744,0 5.517,-5.535 5.517,-9.237c0,-2.977 -1.892,-6.573 -7.416,-6.573c-5.628,0 -8.732,4.283 -8.732,8.214c0,2.205 0.87,3.091 1.273,3.577c0.328,0.395 0.162,0.774 0.162,0.774l-0.355,1.425c-0.131,0.471 -0.552,0.713 -1.143,0.368c-0.592,-0.34 -3.416,-1.536 -3.416,-6.639c0,-5.229 4.926,-10.649 12.571,-10.649c6.069,0 11.429,3.817 11.429,10.001c0,7.634 -4.768,11.718 -9.458,11.718z"></path></g></g></svg>